<svg class="animated" id="freepik_stories-envelope" xmlns="http://www.w3.org/2000/svg" viewBox="0 0 500 500" version="1.1" xmlns:xlink="http://www.w3.org/1999/xlink" xmlns:svgjs="http://svgjs.com/svgjs"><style>svg#freepik_stories-envelope:not(.animated) .animable {opacity: 0;}svg#freepik_stories-envelope.animated #freepik--background-complete--inject-2 {animation: 1s 1 forwards cubic-bezier(.36,-0.01,.5,1.38) slideDown;animation-delay: 0s;}svg#freepik_stories-envelope.animated #freepik--Shadow--inject-2 {animation: 1s 1 forwards cubic-bezier(.36,-0.01,.5,1.38) lightSpeedRight;animation-delay: 0s;}svg#freepik_stories-envelope.animated #freepik--Character--inject-2 {animation: 1s 1 forwards cubic-bezier(.36,-0.01,.5,1.38) slideUp,1.5s Infinite  linear floating;animation-delay: 0s,1s;}svg#freepik_stories-envelope.animated #freepik--Envelope--inject-2 {animation: 1s 1 forwards cubic-bezier(.36,-0.01,.5,1.38) slideLeft,3s Infinite  linear floating;animation-delay: 0s,1s;}            @keyframes slideDown {                0% {                    opacity: 0;                    transform: translateY(-30px);                }                100% {                    opacity: 1;                    transform: translateY(0);                }            }                    @keyframes lightSpeedRight {              from {                transform: translate3d(50%, 0, 0) skewX(-20deg);                opacity: 0;              }              60% {                transform: skewX(10deg);                opacity: 1;              }              80% {                transform: skewX(-2deg);              }              to {                opacity: 1;                transform: translate3d(0, 0, 0);              }            }                    @keyframes slideUp {                0% {                    opacity: 0;                    transform: translateY(30px);                }                100% {                    opacity: 1;                    transform: inherit;                }            }                    @keyframes floating {                0% {                    opacity: 1;                    transform: translateY(0px);                }                50% {                    transform: translateY(-10px);                }                100% {                    opacity: 1;                    transform: translateY(0px);                }            }                    @keyframes slideLeft {                0% {                    opacity: 0;                    transform: translateX(-30px);                }                100% {                    opacity: 1;                    transform: translateX(0);                }            }        .animator-hidden { display: none; }</style><g id="freepik--background-complete--inject-2" class="animable animator-hidden" style="transform-origin: 250px 226.87px;"><rect y="382.4" width="500" height="0.25" style="fill: rgb(235, 235, 235); transform-origin: 250px 382.525px;" id="elojkwi5869td" class="animable"></rect><rect x="416.78" y="398.49" width="18.89" height="0.25" style="fill: rgb(235, 235, 235); transform-origin: 426.225px 398.615px;" id="elj7q7wgmtxn" class="animable"></rect><rect x="293.05" y="396.75" width="29.47" height="0.25" style="fill: rgb(235, 235, 235); transform-origin: 307.785px 396.875px;" id="elc1tu8ahadln" class="animable"></rect><rect x="368.67" y="389.21" width="47.11" height="0.25" style="fill: rgb(235, 235, 235); transform-origin: 392.225px 389.335px;" id="elsrvarueyx29" class="animable"></rect><rect x="52.46" y="390.89" width="10.97" height="0.25" style="fill: rgb(235, 235, 235); transform-origin: 57.945px 391.015px;" id="el2lwlz27cpub" class="animable"></rect><rect x="72.33" y="390.89" width="38.56" height="0.25" style="fill: rgb(235, 235, 235); transform-origin: 91.61px 391.015px;" id="el9zb64t1465u" class="animable"></rect><rect x="171" y="395.11" width="54.15" height="0.25" style="fill: rgb(235, 235, 235); transform-origin: 198.075px 395.235px;" id="elsdjochindw" class="animable"></rect><path d="M237,337.8H43.91a5.71,5.71,0,0,1-5.7-5.71V60.66A5.71,5.71,0,0,1,43.91,55H237a5.71,5.71,0,0,1,5.71,5.71V332.09A5.71,5.71,0,0,1,237,337.8ZM43.91,55.2a5.46,5.46,0,0,0-5.45,5.46V332.09a5.46,5.46,0,0,0,5.45,5.46H237a5.47,5.47,0,0,0,5.46-5.46V60.66A5.47,5.47,0,0,0,237,55.2Z" style="fill: rgb(235, 235, 235); transform-origin: 140.46px 196.4px;" id="el4skzszatid" class="animable"></path><path d="M453.31,337.8H260.21a5.72,5.72,0,0,1-5.71-5.71V60.66A5.72,5.72,0,0,1,260.21,55h193.1A5.71,5.71,0,0,1,459,60.66V332.09A5.71,5.71,0,0,1,453.31,337.8ZM260.21,55.2a5.47,5.47,0,0,0-5.46,5.46V332.09a5.47,5.47,0,0,0,5.46,5.46h193.1a5.47,5.47,0,0,0,5.46-5.46V60.66a5.47,5.47,0,0,0-5.46-5.46Z" style="fill: rgb(235, 235, 235); transform-origin: 356.75px 196.4px;" id="eloqz2td9texd" class="animable"></path><rect x="416.78" y="398.49" width="18.89" height="0.25" style="fill: rgb(235, 235, 235); transform-origin: 426.225px 398.615px;" id="el3p94p63izuf" class="animable"></rect><rect x="293.05" y="396.75" width="29.47" height="0.25" style="fill: rgb(235, 235, 235); transform-origin: 307.785px 396.875px;" id="elu2t791cxd1" class="animable"></rect><rect x="368.67" y="389.21" width="47.11" height="0.25" style="fill: rgb(235, 235, 235); transform-origin: 392.225px 389.335px;" id="eljzt8md317vl" class="animable"></rect><rect x="52.46" y="390.89" width="10.97" height="0.25" style="fill: rgb(235, 235, 235); transform-origin: 57.945px 391.015px;" id="eljwkfztkyh3" class="animable"></rect><rect x="72.33" y="390.89" width="38.56" height="0.25" style="fill: rgb(235, 235, 235); transform-origin: 91.61px 391.015px;" id="elq9vbjsqjue" class="animable"></rect><rect x="171" y="395.11" width="54.15" height="0.25" style="fill: rgb(235, 235, 235); transform-origin: 198.075px 395.235px;" id="el1cgzaur0id1" class="animable"></rect><g id="elln8zonj5ytm"><rect x="381.87" y="162.22" width="23.03" height="4.78" style="fill: rgb(230, 230, 230); transform-origin: 393.385px 164.61px; transform: rotate(180deg);" class="animable" id="elazrit6wyzvd"></rect></g><g id="el74l1dtjg0v8"><rect x="132.14" y="162.22" width="249.72" height="4.78" style="fill: rgb(240, 240, 240); transform-origin: 257px 164.61px; transform: rotate(180deg);" class="animable" id="elf7zh3q6t9h"></rect></g><polygon points="273.79 82.71 334.83 82.71 325.21 162.22 264.17 162.22 273.79 82.71" style="fill: rgb(245, 245, 245); transform-origin: 299.5px 122.465px;" id="elgmbqrhdv6ij" class="animable"></polygon><polygon points="284.9 93.13 321.2 93.13 314.11 151.79 277.8 151.79 284.9 93.13" style="fill: rgb(250, 250, 250); transform-origin: 299.5px 122.46px;" id="el0lk35uqoiynp" class="animable"></polygon><polygon points="185.31 86.34 259.36 86.34 250.18 162.22 176.14 162.22 185.31 86.34" style="fill: rgb(245, 245, 245); transform-origin: 217.75px 124.28px;" id="els4axusal6d" class="animable"></polygon><polygon points="195.91 96.28 246.35 96.28 239.58 152.27 189.14 152.27 195.91 96.28" style="fill: rgb(250, 250, 250); transform-origin: 217.745px 124.275px;" id="el3t0tgj7njm" class="animable"></polygon><polygon points="313.63 109.93 364.65 109.93 358.33 162.22 307.3 162.22 313.63 109.93" style="fill: rgb(240, 240, 240); transform-origin: 335.975px 136.075px;" id="el52ek7xgie4d" class="animable"></polygon><polygon points="320.93 116.78 355.69 116.78 351.02 155.36 316.26 155.36 320.93 116.78" style="fill: rgb(250, 250, 250); transform-origin: 335.975px 136.07px;" id="el30fabjfx55b" class="animable"></polygon><path d="M435.35,230.72H403.81a25.08,25.08,0,0,0-24,19.14l-8.33,34.8-17.12-.06h-.06a17,17,0,0,0-16.7,13.82l-2.28,11.91a8.81,8.81,0,0,0-7.23,6.61h12.09L326,382.4h3.62l14.22-65.46h9.94L339.51,382.4h3.62l14.22-65.46H397l14.22,65.46h3.62l-14.22-65.46h9.94l14.22,65.46h3.62l-14.22-65.46h-1.49a25,25,0,0,0,24-19.12l12-50A13.61,13.61,0,0,0,435.35,230.72Zm-67,66.86a16.57,16.57,0,0,1-15.87,12.66H339.84l2.12-11a12.58,12.58,0,0,1,12.33-10.2h0l16.06.05Z" style="fill: rgb(230, 230, 230); transform-origin: 387.573px 306.559px;" id="elwgcwla8sg2" class="animable"></path><g id="elx02ugv5a7c"><rect x="193.79" y="222.11" width="34.43" height="152.17" style="fill: rgb(240, 240, 240); transform-origin: 211.005px 298.195px; transform: rotate(180deg);" class="animable" id="elqb5ce5rg7be"></rect></g><g id="elnytur2aysnn"><rect x="70.04" y="374.28" width="151.56" height="8.12" style="fill: rgb(240, 240, 240); transform-origin: 145.82px 378.34px; transform: rotate(180deg);" class="animable" id="elo9hmatylp08"></rect></g><rect x="63.43" y="222.11" width="130.36" height="152.17" style="fill: rgb(245, 245, 245); transform-origin: 128.61px 298.195px;" id="eldda9xlr547o" class="animable"></rect><rect x="76.97" y="237.88" width="103.29" height="66.09" style="fill: rgb(240, 240, 240); transform-origin: 128.615px 270.925px;" id="el2yw987simeq" class="animable"></rect><rect x="76.97" y="316.5" width="103.29" height="42.01" style="fill: rgb(240, 240, 240); transform-origin: 128.615px 337.505px;" id="el5mesyf6gm9q" class="animable"></rect><g id="el1jeo8g4nxlr"><rect x="99.22" y="234.75" width="58.78" height="5.76" rx="2.58" style="fill: rgb(245, 245, 245); transform-origin: 128.61px 237.63px; transform: rotate(180deg);" class="animable" id="eluu61q2gcud"></rect></g><g id="el68q6w3p7oid"><rect x="99.22" y="313.62" width="58.78" height="5.76" rx="2.58" style="fill: rgb(245, 245, 245); transform-origin: 128.61px 316.5px; transform: rotate(180deg);" class="animable" id="elfd00cv1n73b"></rect></g><path d="M329.26,230.72H297.72a25.08,25.08,0,0,0-24,19.14l-8.33,34.8-17.12-.06h0a17,17,0,0,0-16.71,13.82l-2.28,11.91a8.82,8.82,0,0,0-7.23,6.61h12.1L219.87,382.4h3.61l14.22-65.46h10L233.43,382.4H237l14.22-65.46h39.66l14.22,65.46h3.61l-14.22-65.46h10L318.7,382.4h3.61l-14.22-65.46H306.6a25,25,0,0,0,24-19.12l12-50A13.62,13.62,0,0,0,329.26,230.72Zm-67,66.86a16.59,16.59,0,0,1-15.88,12.66H233.76l2.12-11a12.57,12.57,0,0,1,12.33-10.2h0l16.07.05Z" style="fill: rgb(230, 230, 230); transform-origin: 281.461px 306.559px;" id="elr7etexoy689" class="animable"></path></g><g id="freepik--Shadow--inject-2" class="animable animator-hidden" style="transform-origin: 250px 416.24px;"><ellipse id="freepik--path--inject-2" cx="250" cy="416.24" rx="193.89" ry="11.32" style="fill: rgb(245, 245, 245); transform-origin: 250px 416.24px;" class="animable"></ellipse></g><g id="freepik--Character--inject-2" class="animable" style="transform-origin: 169.343px 257.754px;"><path d="M150.93,108c.69-12.09,26.25-10.89,31.27.39s.9,21.65,14.83,28.46c24.63,12,27.31,27.94,18,43.63s-45.67,26.68-65.45,1c-19.51-25.35,10.15-31-5.2-42.93C131,128.09,132.14,109.46,150.93,108Z" style="fill: rgb(38, 50, 56); transform-origin: 177.697px 148.115px;" id="el4rbzsw3wfnb" class="animable"></path><path d="M140,166.21c-.33.4-.51.6-.74.86s-.45.48-.67.72c-.45.45-.9.9-1.35,1.31-.91.85-1.84,1.63-2.78,2.39a57.18,57.18,0,0,1-5.93,4.07,66,66,0,0,1-6.27,3.31c-1.08.48-2.15,1-3.24,1.4l-1.64.63-.82.31a10,10,0,0,1-1.47.43,6.88,6.88,0,0,1-6.79-2.36,11.48,11.48,0,0,1-2.2-4.39,30.89,30.89,0,0,1-1-7.44,70.28,70.28,0,0,1,1.17-13.8l4.48.37a125.2,125.2,0,0,0,1.1,12.86,27.6,27.6,0,0,0,1.38,5.66,3.72,3.72,0,0,0,.88,1.49c.07,0,0-.09-.26-.22a2,2,0,0,0-.54-.12s0,0,.12-.07l.71-.35,1.43-.68,2.8-1.44c1.83-1,3.64-2.05,5.36-3.2s3.4-2.33,5-3.61c.79-.63,1.56-1.28,2.28-2,.37-.33.71-.67,1.05-1l.49-.48.36-.39Z" style="fill: rgb(255, 195, 189); transform-origin: 122.547px 167.724px;" id="ele8edw5vr4jg" class="animable"></path><path d="M140.2,152.21c-3.67-.9-13,11.18-13,11.18l5.67,10.79s15.67-8.85,15.08-13.72C147.33,155.38,145.55,153.52,140.2,152.21Z" style="fill: #ECC608; transform-origin: 137.583px 163.171px;" id="el71nogzcpuld" class="animable"></path><g id="elekn3pzbaa0g"><path d="M140.2,152.21c-3.67-.9-13,11.18-13,11.18l5.67,10.79s15.67-8.85,15.08-13.72C147.33,155.38,145.55,153.52,140.2,152.21Z" style="opacity: 0.2; transform-origin: 137.583px 163.171px;" class="animable" id="elvycn61ancn"></path></g><g id="elvgkw1671wt"><path d="M137.77,156.39l.9,14.13c-3.12,2.13-5.81,3.66-5.81,3.66l-1.18-2.26Z" style="opacity: 0.2; transform-origin: 135.175px 165.285px;" class="animable" id="el49uvlzv3wt9"></path></g><path d="M110.08,157l4.13-9.2-8.78,2.09s-1.52,5.5,1.16,8Z" style="fill: rgb(255, 195, 189); transform-origin: 109.605px 152.845px;" id="el377expmsh2i" class="animable"></path><polygon points="113.7 141.22 106.16 141.85 105.43 149.9 114.21 147.81 113.7 141.22" style="fill: rgb(255, 195, 189); transform-origin: 109.82px 145.56px;" id="elm3b4lazmwca" class="animable"></polygon><polygon points="148.33 402.58 139.48 402.93 137.91 382.37 146.76 382.03 148.33 402.58" style="fill: rgb(255, 195, 189); transform-origin: 143.12px 392.48px;" id="elp7wydbf1xn" class="animable"></polygon><polygon points="227.14 326.99 221.37 333.73 203.89 322.55 209.66 315.8 227.14 326.99" style="fill: rgb(255, 195, 189); transform-origin: 215.515px 324.765px;" id="eljpneucfe7z" class="animable"></polygon><path d="M219.43,333.35l5.29-8.46a.7.7,0,0,1,.89-.28l7.29,3.22a1.43,1.43,0,0,1,.59,2c-1.9,2.92-3,4.23-5.28,7.95-1.43,2.29-3.75,7-5.73,10.13s-5.2,1.37-4.66-.12c2.42-6.69,1.72-9.9,1.29-12.93A2.31,2.31,0,0,1,219.43,333.35Z" style="fill: rgb(38, 50, 56); transform-origin: 225.723px 337.099px;" id="el13joun5xe3je" class="animable"></path><path d="M139.19,402.41l9.6-2.69a.7.7,0,0,1,.85.39l3.22,7.29a1.43,1.43,0,0,1-1,1.9c-3.36.88-5,1.14-9.25,2.32-2.6.73-10.19,4.15-13.91,4.45s-4.2-3.37-2.68-3.82a21.13,21.13,0,0,0,11.84-8.92A2.32,2.32,0,0,1,139.19,402.41Z" style="fill: rgb(38, 50, 56); transform-origin: 139.083px 407.888px;" id="elighzxb0w14s" class="animable"></path><g id="eln0565ghkpy"><g style="opacity: 0.2; transform-origin: 178.295px 354.39px;" class="animable" id="elclxdui6xfx"><polygon points="137.91 382.38 138.72 392.98 147.57 392.63 146.76 382.03 137.91 382.38" id="el5adch2w4nll" class="animable" style="transform-origin: 142.74px 387.505px;"></polygon><polygon points="209.66 315.8 203.89 322.55 212.91 328.31 218.68 321.56 209.66 315.8" id="el6bk9yw54heh" class="animable" style="transform-origin: 211.285px 322.055px;"></polygon></g></g><path d="M135.57,155.9c-.86,5-1.68,17.7,2,47.22l36,2.22c.28-13.8,1-24.92,8.47-51.59a4.58,4.58,0,0,0-4.12-5.82c-2.74-.16-6.19-.27-9.71-.12a121.26,121.26,0,0,0-16.55,1.5c-4.67.84-9.78,2.14-12.75,2.93A4.57,4.57,0,0,0,135.57,155.9Z" style="fill: #ECC608; transform-origin: 158.525px 176.539px;" id="elqwu9bnt61bp" class="animable"></path><g id="elgbqwphme8fn"><path d="M135.57,155.9c-.86,5-1.68,17.7,2,47.22l36,2.22c.28-13.8,1-24.92,8.47-51.59a4.58,4.58,0,0,0-4.12-5.82c-2.74-.16-6.19-.27-9.71-.12a121.26,121.26,0,0,0-16.55,1.5c-4.67.84-9.78,2.14-12.75,2.93A4.57,4.57,0,0,0,135.57,155.9Z" style="opacity: 0.2; transform-origin: 158.525px 176.539px;" class="animable" id="elimh7lyaktjl"></path></g><path d="M137.57,203.12s-11.2,67.82-12.29,94.87c-1.13,28.14,11.53,92.14,11.53,92.14h12s-4.38-61.1-1.61-88.63c3-30,16.73-96.76,16.73-96.76Z" style="fill: rgb(38, 50, 56); transform-origin: 144.569px 296.625px;" id="el6oeystna2s5" class="animable"></path><polygon points="149.85 390.56 135.77 390.56 134.73 386.07 150.5 385.52 149.85 390.56" style="fill: #ECC608; transform-origin: 142.615px 388.04px;" id="el5nxmsb97n3f" class="animable"></polygon><g id="el5xpqmmgamed"><path d="M152.05,221.06c-9.94,17.23-4.88,50.1-2.5,62.36,2.72-18,6.79-40,9.91-56.15C158.68,218,156.63,213.11,152.05,221.06Z" style="opacity: 0.2; transform-origin: 152.796px 250.244px;" class="animable" id="el09faqy7xtwp"></path></g><path d="M147.08,203.7s5,81.24,11.2,92.48C168.15,314,210,328.61,210,328.61l7.86-9.2s-26.18-21.77-40-34.14c-3.29-22.47,8.34-57.93-4.23-79.93Z" style="fill: rgb(38, 50, 56); transform-origin: 182.47px 266.155px;" id="elvcszkub8p28" class="animable"></path><path d="M174.23,203.26l.72,3.28c.11.26-.2.49-.62.47l-37-2.29c-.33,0-.59-.2-.59-.4l-.13-3.24c0-.23.28-.4.64-.38L173.66,203A.67.67,0,0,1,174.23,203.26Z" style="fill: #ECC608; transform-origin: 155.791px 203.855px;" id="els7t12vzlxdg" class="animable"></path><path d="M169.08,207l1,.06c.19,0,.35-.08.34-.2l-.2-4.21c0-.13-.17-.24-.36-.25l-1-.06c-.19,0-.35.08-.34.2l.2,4.22C168.72,206.91,168.89,207,169.08,207Z" style="fill: rgb(38, 50, 56); transform-origin: 169.47px 204.7px;" id="el8dwq57w0wwk" class="animable"></path><path d="M140,205.24l1,.06c.2,0,.35-.08.35-.2l-.2-4.22c0-.12-.17-.23-.37-.24l-1-.06c-.2,0-.35.08-.34.2l.19,4.21C139.66,205.12,139.82,205.23,140,205.24Z" style="fill: rgb(38, 50, 56); transform-origin: 140.395px 202.94px;" id="elisg9b0ronif" class="animable"></path><path d="M154.55,206.14l1,.06c.19,0,.35-.08.34-.21l-.2-4.21c0-.12-.17-.23-.36-.25l-1-.06c-.19,0-.35.08-.34.21l.2,4.21C154.19,206,154.36,206.12,154.55,206.14Z" style="fill: rgb(38, 50, 56); transform-origin: 154.94px 203.835px;" id="elogbx5hycaz" class="animable"></path><polygon points="218.81 318.37 209.05 329.79 204.43 327.94 215.3 313.99 218.81 318.37" style="fill: #ECC608; transform-origin: 211.62px 321.89px;" id="elr8n3m4blsg" class="animable"></polygon><path d="M140.05,183.05a5.09,5.09,0,0,0-4,4.84,3.86,3.86,0,0,0-.39-.65,4.23,4.23,0,0,0-.64-.76,5.2,5.2,0,0,0-.79-.63,4.64,4.64,0,0,0-.89-.45,4.57,4.57,0,0,0-1-.27,4.8,4.8,0,0,0-1-.09,6.51,6.51,0,0,0-1,.12,5,5,0,0,0-1.83.8,4.68,4.68,0,0,0-.76.64,5.82,5.82,0,0,0-.62.79,4.77,4.77,0,0,0-.46.9,6.2,6.2,0,0,0-.27,1,5.43,5.43,0,0,0-.07,1,4.69,4.69,0,0,0,.42,1.95,5.45,5.45,0,0,0,.49.88,4.61,4.61,0,0,0,.64.75,4.75,4.75,0,0,0,.79.63,4.64,4.64,0,0,0,.89.45,5.26,5.26,0,0,0,1,.27,6.34,6.34,0,0,0,.75.07,5.09,5.09,0,0,0,2,9.65,5.11,5.11,0,0,0,2.09,9.66,5.09,5.09,0,0,0,2.19,9.62,5.1,5.1,0,0,0-2,1.8,5.1,5.1,0,0,0-.72,1.86,4.73,4.73,0,0,0-.08,1,4.81,4.81,0,0,0,.42,2,5,5,0,0,0,.49.87,4.74,4.74,0,0,0,.65.76,5.31,5.31,0,0,0,.78.64,5.15,5.15,0,0,0,3.85.68,4.79,4.79,0,0,0,1-.31,5.66,5.66,0,0,0,.87-.48,5.31,5.31,0,0,0,.76-.65,4.58,4.58,0,0,0,.62-.79,4.77,4.77,0,0,0,.46-.9,5.16,5.16,0,0,0,.27-1,4.9,4.9,0,0,0,.08-.76,5.1,5.1,0,0,0,9.67-2.07,5.1,5.1,0,0,0,9.66-2.11,5.11,5.11,0,0,0,9.67-2.11,5.11,5.11,0,0,0,9.67-2.11,5.09,5.09,0,0,0,9.65-2.14,3.86,3.86,0,0,0,.39.65,4.23,4.23,0,0,0,.64.76,5.39,5.39,0,0,0,.79.64,5,5,0,0,0,.89.45,5.26,5.26,0,0,0,1,.27,4.82,4.82,0,0,0,1,.08,4.69,4.69,0,0,0,1-.11,5.75,5.75,0,0,0,1.83-.8,5.92,5.92,0,0,0,.76-.65,5.82,5.82,0,0,0,.62-.79,4.21,4.21,0,0,0,.45-.9,5.18,5.18,0,0,0,.28-.95,5.62,5.62,0,0,0,.08-1,5.5,5.5,0,0,0-.42-2,5.43,5.43,0,0,0-.5-.87,4.68,4.68,0,0,0-.64-.76,6.06,6.06,0,0,0-.79-.63,5,5,0,0,0-.89-.45,5.26,5.26,0,0,0-1-.27,6.17,6.17,0,0,0-.74-.07,5.09,5.09,0,0,0-2-9.65,5.11,5.11,0,0,0-2.1-9.65,5.1,5.1,0,0,0-2.18-9.63,6,6,0,0,0,.65-.37,5.45,5.45,0,0,0,1.39-1.43,5,5,0,0,0,.45-.89,4.74,4.74,0,0,0,.27-1,5.72,5.72,0,0,0,.09-1,5.58,5.58,0,0,0-.12-1,5.12,5.12,0,0,0-6.08-3.9,5.55,5.55,0,0,0-.95.31,5.06,5.06,0,0,0-.88.49,5.15,5.15,0,0,0-.76.64,6.73,6.73,0,0,0-.62.79,4.73,4.73,0,0,0-.45.9,4.57,4.57,0,0,0-.27,1,4.66,4.66,0,0,0-.08.76,5.1,5.1,0,0,0-9.68,2,5.11,5.11,0,0,0-9.66,2.11,5.11,5.11,0,0,0-9.67,2.11,5.11,5.11,0,0,0-9.66,2.11A5.11,5.11,0,0,0,140.05,183.05Z" style="fill: #ECC608; transform-origin: 164.709px 203.156px;" id="eliy2461zoy7e" class="animable"></path><g id="elike2rb0oxc"><path d="M140.05,183.05a5.09,5.09,0,0,0-4,4.84,3.86,3.86,0,0,0-.39-.65,4.23,4.23,0,0,0-.64-.76,5.2,5.2,0,0,0-.79-.63,4.64,4.64,0,0,0-.89-.45,4.57,4.57,0,0,0-1-.27,4.8,4.8,0,0,0-1-.09,6.51,6.51,0,0,0-1,.12,5,5,0,0,0-1.83.8,4.68,4.68,0,0,0-.76.64,5.82,5.82,0,0,0-.62.79,4.77,4.77,0,0,0-.46.9,6.2,6.2,0,0,0-.27,1,5.43,5.43,0,0,0-.07,1,4.69,4.69,0,0,0,.42,1.95,5.45,5.45,0,0,0,.49.88,4.61,4.61,0,0,0,.64.75,4.75,4.75,0,0,0,.79.63,4.64,4.64,0,0,0,.89.45,5.26,5.26,0,0,0,1,.27,6.34,6.34,0,0,0,.75.07,5.09,5.09,0,0,0,2,9.65,5.11,5.11,0,0,0,2.09,9.66,5.09,5.09,0,0,0,2.19,9.62,5.1,5.1,0,0,0-2,1.8,5.1,5.1,0,0,0-.72,1.86,4.73,4.73,0,0,0-.08,1,4.81,4.81,0,0,0,.42,2,5,5,0,0,0,.49.87,4.74,4.74,0,0,0,.65.76,5.31,5.31,0,0,0,.78.64,5.15,5.15,0,0,0,3.85.68,4.79,4.79,0,0,0,1-.31,5.66,5.66,0,0,0,.87-.48,5.31,5.31,0,0,0,.76-.65,4.58,4.58,0,0,0,.62-.79,4.77,4.77,0,0,0,.46-.9,5.16,5.16,0,0,0,.27-1,4.9,4.9,0,0,0,.08-.76,5.1,5.1,0,0,0,9.67-2.07,5.1,5.1,0,0,0,9.66-2.11,5.11,5.11,0,0,0,9.67-2.11,5.11,5.11,0,0,0,9.67-2.11,5.09,5.09,0,0,0,9.65-2.14,3.86,3.86,0,0,0,.39.65,4.23,4.23,0,0,0,.64.76,5.39,5.39,0,0,0,.79.64,5,5,0,0,0,.89.45,5.26,5.26,0,0,0,1,.27,4.82,4.82,0,0,0,1,.08,4.69,4.69,0,0,0,1-.11,5.75,5.75,0,0,0,1.83-.8,5.92,5.92,0,0,0,.76-.65,5.82,5.82,0,0,0,.62-.79,4.21,4.21,0,0,0,.45-.9,5.18,5.18,0,0,0,.28-.95,5.62,5.62,0,0,0,.08-1,5.5,5.5,0,0,0-.42-2,5.43,5.43,0,0,0-.5-.87,4.68,4.68,0,0,0-.64-.76,6.06,6.06,0,0,0-.79-.63,5,5,0,0,0-.89-.45,5.26,5.26,0,0,0-1-.27,6.17,6.17,0,0,0-.74-.07,5.09,5.09,0,0,0-2-9.65,5.11,5.11,0,0,0-2.1-9.65,5.1,5.1,0,0,0-2.18-9.63,6,6,0,0,0,.65-.37,5.45,5.45,0,0,0,1.39-1.43,5,5,0,0,0,.45-.89,4.74,4.74,0,0,0,.27-1,5.72,5.72,0,0,0,.09-1,5.58,5.58,0,0,0-.12-1,5.12,5.12,0,0,0-6.08-3.9,5.55,5.55,0,0,0-.95.31,5.06,5.06,0,0,0-.88.49,5.15,5.15,0,0,0-.76.64,6.73,6.73,0,0,0-.62.79,4.73,4.73,0,0,0-.45.9,4.57,4.57,0,0,0-.27,1,4.66,4.66,0,0,0-.08.76,5.1,5.1,0,0,0-9.68,2,5.11,5.11,0,0,0-9.66,2.11,5.11,5.11,0,0,0-9.67,2.11,5.11,5.11,0,0,0-9.66,2.11A5.11,5.11,0,0,0,140.05,183.05Z" style="fill: rgb(255, 255, 255); opacity: 0.7; transform-origin: 164.709px 203.156px;" class="animable" id="elmfoe0x43vwk"></path></g><g id="elmxdp7i9hzga"><rect x="137.04" y="185.41" width="55.27" height="35.41" rx="1.86" style="fill: rgb(255, 255, 255); transform-origin: 164.675px 203.115px; transform: rotate(-12.3deg);" class="animable" id="elmf283tjq6je"></rect></g><path d="M182,156.57c1.75,4.4,3.27,8.77,4.66,13.25s2.66,9,3.68,13.62c.13.58.25,1.17.37,1.75l.17.87.09.44.07.42a4.34,4.34,0,0,1,.07.55,5.81,5.81,0,0,1-.51,2.87,5.62,5.62,0,0,1-2.05,2.32,6.44,6.44,0,0,1-1.94.81,9.16,9.16,0,0,1-1.48.22,17.49,17.49,0,0,1-4.36-.34,37.66,37.66,0,0,1-3.66-.9A77.89,77.89,0,0,1,163.88,187l1.6-4.2c4.39,1,8.88,2.07,13.16,2.74,1.07.17,2.12.29,3.12.36a10,10,0,0,0,2.52-.05c.25,0,.38-.21-.14.06a2.46,2.46,0,0,0-.93,1.05,2.69,2.69,0,0,0-.26,1.18c0,.08,0,.08,0,.12s0,.11,0,0l-.11-.4-.22-.81c-.15-.53-.28-1.07-.45-1.6-1.23-4.29-2.63-8.58-4.09-12.87s-3-8.57-4.56-12.77Z" style="fill: rgb(255, 195, 189); transform-origin: 177.504px 175.14px;" id="eluqkmb1twih9" class="animable"></path><path d="M180.77,148.35c3.53,1.32,7.1,14,7.1,14l-14.61,9.13s-4.64-12.24-2.84-16.8C172.3,149.92,176.73,146.84,180.77,148.35Z" style="fill: #ECC608; transform-origin: 178.938px 159.722px;" id="elsbhwyt61h6b" class="animable"></path><g id="eljngu1lo85d"><path d="M180.77,148.35c3.53,1.32,7.1,14,7.1,14l-14.61,9.13s-4.64-12.24-2.84-16.8C172.3,149.92,176.73,146.84,180.77,148.35Z" style="opacity: 0.2; transform-origin: 178.938px 159.722px;" class="animable" id="elzfuabx0x2s"></path></g><path d="M218,337.9l-.1,0a1.23,1.23,0,0,1-1.13-.3.69.69,0,0,1-.28-.67c.15-1.12,3.05-2.49,3.38-2.64a.2.2,0,0,1,.23,0,.2.2,0,0,1,.06.22C219.74,335.67,219,337.51,218,337.9Zm1.59-3c-1.15.57-2.61,1.5-2.69,2.09a.31.31,0,0,0,.14.29.79.79,0,0,0,.74.21C218.32,337.37,219,336.41,219.54,334.94Z" style="fill: #ECC608; transform-origin: 218.326px 336.094px;" id="eliitp2g45tka" class="animable"></path><path d="M219.71,334.84c-1,.39-3.11.61-3.78,0a.74.74,0,0,1-.12-.91,1.07,1.07,0,0,1,.71-.6c1.24-.37,3.41,1,3.5,1a.21.21,0,0,1,.1.19.21.21,0,0,1-.11.18Zm-3.13-1.11a.69.69,0,0,0-.39.36c-.11.25,0,.36,0,.43.45.42,2.21.33,3.23,0-.75-.41-2.07-1-2.81-.79Z" style="fill: #ECC608; transform-origin: 217.913px 334.243px;" id="el41873l2dssr" class="animable"></path><path d="M136.4,404.8a3.33,3.33,0,0,1-2.22.05,1.18,1.18,0,0,1-.65-.88.71.71,0,0,1,.2-.64c.88-.86,4.78-.08,5.22,0a.19.19,0,0,1,.16.17.2.2,0,0,1-.11.22A15.24,15.24,0,0,1,136.4,404.8Zm-2-1.34a.76.76,0,0,0-.36.18.24.24,0,0,0-.07.25.79.79,0,0,0,.41.59c.65.32,2.08,0,3.89-.84A11.45,11.45,0,0,0,134.38,403.46Z" style="fill: #ECC608; transform-origin: 136.316px 403.973px;" id="elapg7zlwkd8q" class="animable"></path><path d="M139,403.75h-.08c-1.15-.18-3.69-1.45-3.8-2.47,0-.24.06-.57.6-.78a1.52,1.52,0,0,1,1.22,0c1.33.6,2.17,2.84,2.2,2.94a.18.18,0,0,1,0,.2A.19.19,0,0,1,139,403.75Zm-3-2.89-.12,0c-.36.14-.35.3-.34.35.07.6,1.84,1.67,3.06,2a4.9,4.9,0,0,0-1.83-2.33A1.09,1.09,0,0,0,136,400.86Z" style="fill: #ECC608; transform-origin: 137.145px 402.061px;" id="elpfxdm59jky" class="animable"></path><path d="M168.21,147.45a121.12,121.12,0,0,0-16.56,1.5c-2,.36-4.07.8-6,1.25h0c-1.49,1.59-4.08,9.63-1.17,15.07,1.92-3.22,5.15-6,7.3-6.32,2.36.64,4.69,4.21,5.26,7.36,3.86-.7,12.21-9.73,17-17l1.22-1.88C173,147.36,170.64,147.35,168.21,147.45Z" style="fill: #ECC608; transform-origin: 159.209px 156.843px;" id="elkx52kl2chbb" class="animable"></path><path d="M167.7,129.63c-1.37,5.33-3,15,.5,18.18,0,0-3.3,5.37-11.68,6.34-9.22,1.08-4.87-4.84-4.87-4.84,6-1.93,6.14-6.25,5.36-10.23Z" style="fill: rgb(255, 195, 189); transform-origin: 159.412px 141.956px;" id="elyb8hy0waeek" class="animable"></path><path d="M151.65,149.31s-3.69,3.89-.18,11c7.42-3.45,14.53-7.54,16.73-12.48Z" style="fill: rgb(255, 195, 189); transform-origin: 159.078px 154.07px;" id="elczz7pbh067" class="animable"></path><g id="el93bpuirragt"><path d="M163.34,133.48l-6.33,5.6a15.27,15.27,0,0,1,.33,2.84c2.29-.53,6.07-2.81,6.46-5.16A8.3,8.3,0,0,0,163.34,133.48Z" style="opacity: 0.2; transform-origin: 160.413px 137.7px;" class="animable" id="elwnsyge2why"></path></g><path d="M174.72,123.19c-3.14,8.23-4.3,11.78-9.88,14.76-8.41,4.49-17.83-1.17-17.21-10.17.56-8.11,5.6-20.21,14.86-21A12,12,0,0,1,174.72,123.19Z" style="fill: rgb(255, 195, 189); transform-origin: 161.59px 123.127px;" id="el9wf5nthripw" class="animable"></path><path d="M156,106.76c3.76-.87,5,3.42-1.58,4.93S152.94,107.48,156,106.76Z" style="fill: rgb(38, 50, 56); transform-origin: 155.151px 109.294px;" id="elm1nh0v5rvah" class="animable"></path><path d="M159.93,104.49c-5.37,2-3,8.17,3.09,9.93s4.06,12.09,9.52,14.36,8.35-15.1,3.64-20S163.54,103.13,159.93,104.49Z" style="fill: rgb(38, 50, 56); transform-origin: 167.744px 116.436px;" id="elh4irbazfb4o" class="animable"></path><path d="M154.91,120.79a19.13,19.13,0,0,1-3.8,3.6,3.1,3.1,0,0,0,2.29,1.22Z" style="fill: rgb(237, 132, 126); transform-origin: 153.01px 123.2px;" id="elb1sreoumzm7" class="animable"></path><path d="M156.29,129.45a7.22,7.22,0,0,1-1-.24.21.21,0,0,1-.14-.26.23.23,0,0,1,.27-.14,5.67,5.67,0,0,0,5.07-.73.21.21,0,0,1,.3,0,.22.22,0,0,1,0,.3A5.88,5.88,0,0,1,156.29,129.45Z" style="fill: rgb(38, 50, 56); transform-origin: 157.995px 128.776px;" id="eln6ammmc23ok" class="animable"></path><path d="M174.92,130.69a6.48,6.48,0,0,1-4.28,2.43c-2.24.26-3-1.83-2.1-3.76.83-1.74,3-4,5.1-3.34A2.89,2.89,0,0,1,174.92,130.69Z" style="fill: rgb(255, 195, 189); transform-origin: 171.909px 129.522px;" id="elxp7n6wb55rh" class="animable"></path><path d="M165.36,121a.43.43,0,0,1-.31-.38c-.12-1.95-2.25-3.28-2.27-3.29a.42.42,0,1,1,.44-.71c.11.06,2.52,1.57,2.66,3.94a.41.41,0,0,1-.39.45Z" style="fill: rgb(38, 50, 56); transform-origin: 164.212px 118.771px;" id="el7k0viw36bta" class="animable"></path><path d="M160.76,122c-.23.62-.75,1-1.16.86s-.56-.78-.33-1.41.75-1,1.16-.86S161,121.36,160.76,122Z" style="fill: rgb(38, 50, 56); transform-origin: 160.017px 121.725px;" id="el47bd4zqp0e" class="animable"></path><path d="M153,119.26c-.23.62-.75,1-1.16.86s-.56-.78-.32-1.41.75-1,1.16-.86S153.24,118.63,153,119.26Z" style="fill: rgb(38, 50, 56); transform-origin: 152.26px 118.985px;" id="elsk0ogmok568" class="animable"></path><path d="M152.85,118l-1.34-1S151.85,118.42,152.85,118Z" style="fill: rgb(38, 50, 56); transform-origin: 152.18px 117.539px;" id="elhogpgz0wbe" class="animable"></path><path d="M160.6,120.68l-1.34-1S159.6,121.15,160.6,120.68Z" style="fill: rgb(38, 50, 56); transform-origin: 159.93px 120.226px;" id="el58i4205g26s" class="animable"></path><path d="M151.23,114a.41.41,0,0,1-.36-.21.42.42,0,0,1,.16-.57,4.16,4.16,0,0,1,3.83-.26.42.42,0,0,1-.38.75h0a3.31,3.31,0,0,0-3,.24A.34.34,0,0,1,151.23,114Z" style="fill: rgb(38, 50, 56); transform-origin: 152.954px 113.309px;" id="el34k1sesiiuq" class="animable"></path><path d="M166.65,183.22l-6.05-7.45-1.69,8.87s4.39,3.63,7.8,2.24Z" style="fill: rgb(255, 195, 189); transform-origin: 162.81px 181.484px;" id="elsralx3dunor" class="animable"></path><polygon points="155.23 174.54 152.31 181.6 158.91 184.64 160.6 175.77 155.23 174.54" style="fill: rgb(255, 195, 189); transform-origin: 156.455px 179.59px;" id="el620za9v2nt5" class="animable"></polygon></g><g id="freepik--Envelope--inject-2" class="animable animator-active" style="transform-origin: 293.39px 257.008px;"><g id="el1plh0rtpu40h"><rect x="409.62" y="239.36" width="0.95" height="12.86" style="fill: #ECC608; transform-origin: 410.095px 245.79px; transform: rotate(-5.49deg);" class="animable" id="el0pz7twmklwl9"></rect></g><g id="elivrr600oaxn"><rect x="410.92" y="256.65" width="0.95" height="5.19" style="fill: #ECC608; transform-origin: 411.395px 259.245px; transform: rotate(-5.49deg);" class="animable" id="elyqxhxvylxsn"></rect></g><g id="el1wm503dq7ua"><rect x="176.14" y="216.98" width="234.5" height="139.6" style="fill: #ECC608; transform-origin: 293.39px 286.78px; transform: rotate(174.51deg);" class="animable" id="el6dry1mb5eeo"></rect></g><g id="eldo7v9uci038"><rect x="176.14" y="216.98" width="234.5" height="139.6" style="opacity: 0.1; transform-origin: 293.39px 286.78px; transform: rotate(174.51deg);" class="animable" id="elev8b3otb3mi"></rect></g><g id="el7nszmftvjbd"><polygon points="294 293.1 170 228.52 403.42 206.08 294 293.1" style="fill: rgb(38, 50, 56); opacity: 0.1; transform-origin: 286.71px 249.59px;" class="animable" id="elvcg6t2h1q59"></polygon></g><path d="M265.75,152.38,170,228.52l233.42-22.44-108.5-56.5A26.9,26.9,0,0,0,265.75,152.38Z" style="fill: #ECC608; transform-origin: 286.71px 187.528px;" id="elw60587hcdf" class="animable"></path><g id="el4fxs5acx54"><path d="M394.75,206.92,291.66,153.23a20.28,20.28,0,0,0-22,2.11l-91,72.34Z" style="fill: rgb(38, 50, 56); opacity: 0.2; transform-origin: 286.705px 189.306px;" class="animable" id="elb331jqe27cp"></path></g><polygon points="351.64 205.21 383.23 213.65 383.99 221.53 294 293.1 192.02 239.99 190.5 224.23 351.64 205.21" style="fill: rgb(255, 255, 255); transform-origin: 287.245px 249.155px;" id="el4hq6doep9p5" class="animable"></polygon><polyline points="351.64 205.21 357.61 221.75 383.23 213.65" style="fill: rgb(224, 224, 224); transform-origin: 367.435px 213.48px;" id="el2cgzhkffm1r" class="animable"></polyline><polyline points="351.64 205.21 354.71 218.85 383.23 213.65" style="fill: rgb(240, 240, 240); transform-origin: 367.435px 212.03px;" id="el10qjwn34wndo" class="animable"></polyline><path d="M312.65,278.24l104.13,66.81L183.36,367.48l89.49-85.42A32.35,32.35,0,0,1,312.65,278.24Z" style="fill: #ECC608; transform-origin: 300.07px 320.299px;" id="ely1wq4irbr6j" class="animable"></path></g><defs>     <filter id="active" height="200%">         <feMorphology in="SourceAlpha" result="DILATED" operator="dilate" radius="2"></feMorphology>                <feFlood flood-color="#32DFEC" flood-opacity="1" result="PINK"></feFlood>        <feComposite in="PINK" in2="DILATED" operator="in" result="OUTLINE"></feComposite>        <feMerge>            <feMergeNode in="OUTLINE"></feMergeNode>            <feMergeNode in="SourceGraphic"></feMergeNode>        </feMerge>    </filter>    <filter id="hover" height="200%">        <feMorphology in="SourceAlpha" result="DILATED" operator="dilate" radius="2"></feMorphology>                <feFlood flood-color="#ff0000" flood-opacity="0.5" result="PINK"></feFlood>        <feComposite in="PINK" in2="DILATED" operator="in" result="OUTLINE"></feComposite>        <feMerge>            <feMergeNode in="OUTLINE"></feMergeNode>            <feMergeNode in="SourceGraphic"></feMergeNode>        </feMerge>            <feColorMatrix type="matrix" values="0   0   0   0   0                0   1   0   0   0                0   0   0   0   0                0   0   0   1   0 "></feColorMatrix>    </filter></defs></svg>